<svg width="343" height="377" viewBox="0 0 343 377" fill="none" xmlns="http://www.w3.org/2000/svg">
<path d="M0.0322266 0.567871H342.153V376.9H0.0322266V0.567871Z" fill="url(#paint0_linear_1270_37322)"/>
<g opacity="0.7">
<path d="M231.813 122.141C231.813 155.998 205.367 188.419 171.51 188.419C137.653 188.419 111.206 155.998 111.206 122.141C111.206 88.284 137.653 60.8374 171.51 60.8374C205.367 60.8374 231.813 88.284 231.813 122.141Z" fill="#2C3238"/>
<path d="M171.091 205.448C208.396 205.448 259.835 214.932 268.746 295.787C270.319 310.06 258.447 321.769 244.088 321.769H98.0949C83.7354 321.769 71.8661 310.057 73.4163 295.781C82.271 214.236 133.759 205.448 171.091 205.448Z" fill="#2C3238"/>
</g>
<defs>
<linearGradient id="paint0_linear_1270_37322" x1="171.092" y1="0.567871" x2="171.092" y2="376.9" gradientUnits="userSpaceOnUse">
<stop stop-color="#D0DBE1"/>
<stop offset="1" stop-color="#B3BBC0"/>
</linearGradient>
</defs>
</svg>
